<svg width="24" height="24" viewBox="0 0 24 24" fill="none" xmlns="http://www.w3.org/2000/svg">
<path d="M12.0229 24H11.9701C5.36985 24 0 18.6286 0 12.0264V11.9736C0 5.37142 5.36985 0 11.9701 0H12.0229C18.6231 0 23.9929 5.37142 23.9929 11.9736V12.0264C23.9929 18.6286 18.6231 24 12.0229 24ZM11.9701 0.812375C5.81733 0.812375 0.812136 5.81904 0.812136 11.9736V12.0264C0.812136 18.181 5.81733 23.1876 11.9701 23.1876H12.0229C18.1756 23.1876 23.1808 18.181 23.1808 12.0264V11.9736C23.1808 5.81904 18.1756 0.812375 12.0229 0.812375H11.9701Z" fill="#454545"/>
<path d="M15.5834 5.12366H8.4106C6.42898 5.12366 4.81689 6.73622 4.81689 8.71842V15.2824C4.81689 17.2646 6.42898 18.8772 8.4106 18.8772H15.5834C17.565 18.8772 19.1771 17.2646 19.1771 15.2824V8.71842C19.1771 6.73622 17.565 5.12366 15.5834 5.12366ZM6.08464 8.71842C6.08464 7.43568 7.12823 6.39176 8.4106 6.39176H15.5834C16.8657 6.39176 17.9093 7.43568 17.9093 8.71842V15.2824C17.9093 16.5651 16.8657 17.6091 15.5834 17.6091H8.4106C7.12823 17.6091 6.08464 16.5651 6.08464 15.2824V8.71842Z" fill="#454545"/>
<path d="M11.9968 15.3435C13.8395 15.3435 15.3396 13.8438 15.3396 11.9997C15.3396 10.1556 13.8404 8.65601 11.9968 8.65601C10.1533 8.65601 8.65405 10.1556 8.65405 11.9997C8.65405 13.8438 10.1533 15.3435 11.9968 15.3435ZM11.9968 9.92493C13.1411 9.92493 14.0718 10.8559 14.0718 12.0005C14.0718 13.1452 13.1411 14.0762 11.9968 14.0762C10.8525 14.0762 9.9218 13.1452 9.9218 12.0005C9.9218 10.8559 10.8525 9.92493 11.9968 9.92493Z" fill="#454545"/>
<path d="M15.6492 9.19613C16.1454 9.19613 16.5499 8.79239 16.5499 8.29522C16.5499 7.79804 16.1462 7.39429 15.6492 7.39429C15.1522 7.39429 14.7485 7.79804 14.7485 8.29522C14.7485 8.79239 15.1522 9.19613 15.6492 9.19613Z" fill="#454545"/>
</svg>
