<svg width="32" height="32" viewBox="0 0 32 32" fill="none" xmlns="http://www.w3.org/2000/svg">
<path d="M7.05737 7.05734C7.30741 6.80737 7.64649 6.66695 8.00004 6.66695C8.35359 6.66695 8.69267 6.80737 8.94271 7.05734L16 14.1147L23.0574 7.05734C23.1804 6.92999 23.3275 6.82841 23.4902 6.75853C23.6528 6.68865 23.8278 6.65187 24.0048 6.65033C24.1819 6.6488 24.3574 6.68253 24.5213 6.74957C24.6852 6.81661 24.834 6.91562 24.9592 7.04081C25.0844 7.166 25.1834 7.31487 25.2505 7.47873C25.3175 7.64259 25.3512 7.81816 25.3497 7.9952C25.3482 8.17224 25.3114 8.3472 25.2415 8.50987C25.1716 8.67255 25.0701 8.81967 24.9427 8.94267L17.8854 16L24.9427 23.0573C25.1856 23.3088 25.32 23.6456 25.3169 23.9952C25.3139 24.3448 25.1737 24.6792 24.9265 24.9264C24.6793 25.1736 24.3448 25.3139 23.9952 25.3169C23.6456 25.3199 23.3088 25.1855 23.0574 24.9427L16 17.8853L8.94271 24.9427C8.69124 25.1855 8.35443 25.3199 8.00484 25.3169C7.65524 25.3139 7.32083 25.1736 7.07362 24.9264C6.82641 24.6792 6.68618 24.3448 6.68314 23.9952C6.6801 23.6456 6.8145 23.3088 7.05737 23.0573L14.1147 16L7.05737 8.94267C6.80741 8.69263 6.66699 8.35355 6.66699 8C6.66699 7.64645 6.80741 7.30737 7.05737 7.05734Z" fill="white"/>
</svg>
