<svg width="32" height="32" viewBox="0 0 32 32" fill="none" xmlns="http://www.w3.org/2000/svg">
<path d="M9.33333 10.6666C7.792 10.6666 6.42 11.168 5.46133 12.1266C4.50133 13.0866 4 14.456 4 15.9973C4 17.4413 4.25333 18.6106 4.94667 19.532C5.496 20.26 6.38667 20.6946 7.30667 21.1493C7.30933 22.612 7.28 23.16 6.13333 25.1653C5.61867 26.068 6.65067 27.0586 7.53067 26.508C10.2293 24.8226 12.0093 23.5213 13.1507 21.904C14.2933 20.2866 14.6667 18.424 14.6667 15.9973C14.6667 14.456 14.168 13.0866 13.208 12.1266C12.248 11.1666 10.8747 10.6666 9.33333 10.6666ZM22.6667 10.6666C21.1253 10.6666 19.7533 11.168 18.7947 12.1266C17.8347 13.0866 17.3333 14.456 17.3333 15.9973C17.3333 17.4413 17.5867 18.6106 18.28 19.532C18.8293 20.26 19.72 20.6946 20.64 21.1493C20.6427 22.612 20.6133 23.16 19.4667 25.1653C18.952 26.068 19.984 27.0586 20.864 26.508C23.5627 24.8226 25.3427 23.5213 26.484 21.904C27.6267 20.2866 28 18.424 28 15.9973C28 14.456 27.5013 13.0866 26.5413 12.1266C25.5813 11.1666 24.208 10.6666 22.6667 10.6666Z" fill="#3A5A33"/>
</svg>
