<svg width="24" height="24" viewBox="0 0 24 24" fill="none" xmlns="http://www.w3.org/2000/svg">
<path d="M12.0229 24H11.9701C5.36984 24 0 18.6286 0 12.0264V11.9736C0 5.37143 5.36984 0 11.9701 0H12.0229C18.6231 0 23.9929 5.37143 23.9929 11.9736V12.0264C23.9929 18.6286 18.6231 24 12.0229 24ZM11.9701 0.812375C5.81733 0.812375 0.812136 5.81905 0.812136 11.9736V12.0264C0.812136 18.181 5.81733 23.1876 11.9701 23.1876H12.0229C18.1756 23.1876 23.1808 18.181 23.1808 12.0264V11.9736C23.1808 5.81905 18.1756 0.812375 12.0229 0.812375H11.9701Z" fill="#454545"/>
<path d="M15.6239 9.87772C15.6222 10.0329 15.606 10.188 15.5914 10.3432C15.5865 10.3944 15.5849 10.4464 15.5841 10.4976C15.5825 10.5861 15.6531 10.6665 15.7416 10.6608C15.7839 10.6584 15.8269 10.647 15.8675 10.6332C16.0031 10.5853 16.1371 10.5341 16.272 10.4829C16.3938 10.4358 16.518 10.3936 16.6439 10.3595C16.7812 10.3221 16.9184 10.2945 17.0581 10.3172C17.3424 10.3635 17.5275 10.6698 17.4236 10.9387C17.3943 11.0142 17.3497 11.0792 17.2961 11.1393C17.2222 11.2214 17.1385 11.2912 17.0476 11.353C16.9403 11.4253 16.8323 11.496 16.7243 11.5675C16.544 11.6861 16.3637 11.8039 16.1842 11.9241C16.1095 11.9736 16.0373 12.0264 15.9666 12.0809C15.9276 12.1109 15.8911 12.1459 15.8578 12.1824C15.7944 12.2531 15.7595 12.3433 15.7652 12.4375C15.7709 12.5374 15.7879 12.6349 15.8155 12.7308C15.9008 13.0297 16.0316 13.3076 16.1899 13.5732C16.6147 14.2824 17.2165 14.8364 17.9328 15.2889C18.1293 15.4132 18.3397 15.514 18.5467 15.6204C18.576 15.6358 18.6044 15.6513 18.6328 15.6683C18.6613 15.6854 18.6864 15.7081 18.7051 15.7357C18.7344 15.7772 18.7384 15.8211 18.7132 15.8665C18.6921 15.9055 18.6613 15.9356 18.628 15.9632C18.5906 15.9941 18.55 16.0201 18.5078 16.0436C18.2658 16.1809 18.0059 16.2833 17.7371 16.3548C17.6071 16.3897 17.4772 16.4263 17.348 16.4645C17.2684 16.488 17.1937 16.5229 17.1198 16.5611C16.9956 16.6253 16.9249 16.7285 16.8989 16.8625C16.8843 16.9373 16.8754 17.0136 16.8616 17.0884C16.8275 17.2776 16.7592 17.3467 16.5741 17.3792C16.5091 17.3906 16.4425 17.3971 16.3767 17.4011C16.211 17.41 16.0454 17.4149 15.8797 17.4239C15.8748 17.4239 15.8699 17.4239 15.8659 17.4247C15.204 17.4637 14.564 17.6757 13.9964 18.0185C13.9663 18.0364 13.9363 18.0551 13.9054 18.0729C13.6756 18.2119 13.4417 18.3443 13.1907 18.4418C12.9105 18.5506 12.6214 18.6156 12.3217 18.6424C12.0692 18.6652 11.8174 18.6619 11.5664 18.6335C11.1904 18.5913 10.8339 18.4816 10.4969 18.3094C10.3401 18.2289 10.1891 18.1396 10.0396 18.0478C10.0315 18.0429 10.0234 18.038 10.0145 18.0323C9.41835 17.6692 8.74021 17.449 8.04259 17.4206C8.03772 17.4206 8.03285 17.4206 8.02798 17.4206C7.88179 17.4149 7.73642 17.4092 7.59023 17.4003C7.50496 17.3954 7.41968 17.3841 7.33603 17.3613C7.22965 17.3321 7.15249 17.2387 7.13219 17.1306C7.12082 17.0713 7.11188 17.012 7.10133 16.9527C7.09889 16.9397 7.09889 16.9259 7.09645 16.9129C7.07208 16.739 6.986 16.6115 6.82276 16.5376C6.72287 16.4921 6.62054 16.4555 6.51497 16.4263C6.33305 16.3759 6.1495 16.3312 5.97164 16.267C5.8149 16.211 5.66385 16.1444 5.51847 16.0648C5.47462 16.0412 5.43238 16.0144 5.39178 15.9868C5.36416 15.9681 5.33818 15.947 5.31544 15.9234C5.24235 15.847 5.24965 15.7471 5.33249 15.6821C5.38041 15.644 5.43644 15.6188 5.49086 15.592C5.87012 15.4059 6.22991 15.1882 6.56451 14.9299C7.06965 14.5407 7.49765 14.0801 7.82169 13.5253C7.93701 13.3271 8.03284 13.1167 8.11162 12.9006C8.1636 12.7576 8.20583 12.6146 8.21639 12.4643C8.2237 12.3538 8.18633 12.2442 8.11081 12.1637C8.05639 12.1061 7.99305 12.0598 7.92889 12.0135C7.83306 11.9452 7.73642 11.8778 7.63896 11.8136C7.42943 11.6755 7.21909 11.5398 7.00955 11.4026C6.91778 11.3424 6.82925 11.2774 6.74967 11.2019C6.692 11.1467 6.64003 11.0874 6.59861 11.0183C6.51252 10.8737 6.50603 10.725 6.57019 10.5723C6.60836 10.4813 6.67983 10.4041 6.76917 10.3627C6.89667 10.3042 7.02986 10.2969 7.16386 10.3188C7.30842 10.3424 7.44729 10.3871 7.58454 10.4366C7.72504 10.487 7.86311 10.5422 8.00279 10.5942C8.06777 10.6186 8.13355 10.643 8.20258 10.6535C8.21882 10.656 8.23507 10.6608 8.25131 10.66C8.33171 10.6576 8.3983 10.6316 8.39749 10.5236C8.39749 10.4716 8.39587 10.4188 8.39344 10.3668C8.38126 10.1068 8.36582 9.84684 8.35932 9.58688C8.34471 8.96785 8.34714 8.34639 8.50875 7.74524C8.60783 7.37723 8.7792 7.03522 9.01066 6.7314C9.49063 6.10018 10.1241 5.69967 10.8818 5.48602C11.296 5.36904 11.7191 5.33085 12.1479 5.34385C12.5532 5.35604 12.9568 5.42429 13.3401 5.55833C13.7949 5.71756 14.2083 5.94826 14.56 6.27564C14.9595 6.64771 15.2673 7.08235 15.4346 7.60876C15.5102 7.84679 15.5581 8.0905 15.5873 8.33746C15.6482 8.84845 15.6312 9.36267 15.6263 9.87609L15.6239 9.87772Z" fill="#454545"/>
</svg>
