<svg width="24" height="24" viewBox="0 0 24 24" fill="none" xmlns="http://www.w3.org/2000/svg">
<path d="M12.0229 24H11.9701C5.36984 24 0 18.6286 0 12.0264V11.9736C0 5.37142 5.36984 0 11.9701 0H12.0229C18.6231 0 23.9929 5.37142 23.9929 11.9736V12.0264C23.9929 18.6286 18.6231 24 12.0229 24ZM11.9701 0.812375C5.81732 0.812375 0.812136 5.81904 0.812136 11.9736V12.0264C0.812136 18.181 5.81732 23.1876 11.9701 23.1876H12.0229C18.1756 23.1876 23.1808 18.181 23.1808 12.0264V11.9736C23.1808 5.81904 18.1756 0.812375 12.0229 0.812375H11.9701Z" fill="#454545"/>
<path d="M4.79645 11.6039C4.82893 11.5877 4.86143 11.5722 4.8931 11.5576C5.44373 11.3025 6.00167 11.0637 6.5588 10.8248C6.58885 10.8248 6.63919 10.7899 6.66761 10.7785C6.71065 10.7598 6.7537 10.742 6.79675 10.7233C6.87959 10.6875 6.96243 10.6526 7.04445 10.6169C7.21013 10.5462 7.37498 10.4755 7.54066 10.4048C7.8712 10.2635 8.20173 10.1221 8.53227 9.97996C9.19335 9.69726 9.85526 9.41372 10.5163 9.13102C11.1774 8.84831 11.8393 8.56479 12.5004 8.28209C13.1615 7.99938 13.8233 7.71587 14.4844 7.43316C15.1455 7.15045 15.8074 6.86694 16.4685 6.58423C16.6155 6.52087 16.7747 6.42663 16.9322 6.39901C17.0646 6.37545 17.1937 6.32996 17.3269 6.30478C17.5795 6.25685 17.858 6.23735 18.1001 6.34215C18.1837 6.3787 18.2609 6.42987 18.325 6.49405C18.632 6.79788 18.589 7.29669 18.524 7.724C18.0716 10.7022 17.6193 13.6811 17.1661 16.6593C17.1044 17.0679 17.0199 17.5164 16.6975 17.7747C16.4246 17.9932 16.0364 18.0176 15.6994 17.925C15.3623 17.8316 15.0651 17.6358 14.7735 17.4432C13.5643 16.6422 12.3542 15.8412 11.1449 15.0402C10.8574 14.8501 10.5375 14.6016 10.5407 14.2563C10.5423 14.0483 10.6666 13.8631 10.7933 13.6982C11.8442 12.3269 13.3604 11.3846 14.4885 10.0766C14.6477 9.89222 14.7727 9.55916 14.5543 9.45273C14.4243 9.38937 14.2749 9.47546 14.1563 9.55751C12.6652 10.5933 11.175 11.6299 9.6839 12.6657C9.19743 13.0036 8.68741 13.3513 8.10104 13.4342C7.5764 13.5089 7.04852 13.3627 6.54093 13.2132C6.11537 13.0881 5.69061 12.9597 5.26749 12.8273C5.04253 12.7575 4.81025 12.6819 4.63646 12.5235C4.46266 12.3651 4.36278 12.0986 4.46755 11.8874C4.53333 11.755 4.66084 11.6713 4.79484 11.6031L4.79645 11.6039Z" fill="#454545"/>
</svg>
