<svg width="24" height="24" viewBox="0 0 24 24" fill="none" xmlns="http://www.w3.org/2000/svg">
<path d="M12.0229 24H11.9701C5.36985 24 0 18.6286 0 12.0264V11.9736C0 5.37142 5.36985 0 11.9701 0H12.0229C18.6231 0 23.9929 5.37142 23.9929 11.9736V12.0264C23.9929 18.6286 18.6231 24 12.0229 24ZM11.9701 0.812375C5.81733 0.812375 0.812136 5.81904 0.812136 11.9736V12.0264C0.812136 18.181 5.81733 23.1876 11.9701 23.1876H12.0229C18.1756 23.1876 23.1808 18.181 23.1808 12.0264V11.9736C23.1808 5.81904 18.1756 0.812375 12.0229 0.812375H11.9701Z" fill="#454545"/>
<path d="M17.5999 8.79478V10.9841C17.2174 10.9468 16.7204 10.8598 16.1705 10.6584C15.4526 10.3952 14.9182 10.0353 14.5682 9.75664V14.1816L14.5593 14.1678C14.565 14.2556 14.5682 14.3449 14.5682 14.4351C14.5682 16.6326 12.7807 18.4214 10.5831 18.4214C8.38541 18.4214 6.5979 16.6326 6.5979 14.4351C6.5979 12.2376 8.38541 10.448 10.5831 10.448C10.7983 10.448 11.0094 10.465 11.2157 10.4983V12.656C11.0175 12.5853 10.8048 12.5471 10.5831 12.5471C9.54271 12.5471 8.69565 13.3936 8.69565 14.4351C8.69565 15.4766 9.54271 16.3231 10.5831 16.3231C11.6234 16.3231 12.4705 15.4757 12.4705 14.4351C12.4705 14.3961 12.4696 14.3571 12.4672 14.3181V5.71912H14.6543C14.6624 5.90434 14.6697 6.09119 14.6778 6.27641C14.6925 6.64117 14.8224 6.99131 15.049 7.27808C15.3146 7.61522 15.7068 8.00677 16.2574 8.31953C16.7732 8.61117 17.2572 8.7371 17.5999 8.7964V8.79478Z" fill="#454545"/>
</svg>
