<svg width="24" height="24" viewBox="0 0 24 24" fill="none" xmlns="http://www.w3.org/2000/svg">
<path d="M12.0229 24H11.9701C5.36985 24 0 18.6286 0 12.0264V11.9736C0 5.37142 5.36985 0 11.9701 0H12.0229C18.6231 0 23.9929 5.37142 23.9929 11.9736V12.0264C23.9929 18.6286 18.6231 24 12.0229 24ZM11.9701 0.812375C5.81733 0.812375 0.812136 5.81904 0.812136 11.9736V12.0264C0.812136 18.181 5.81733 23.1876 11.9701 23.1876H12.0229C18.1756 23.1876 23.1808 18.181 23.1808 12.0264V11.9736C23.1808 5.81904 18.1756 0.812375 12.0229 0.812375H11.9701Z" fill="#454545"/>
<path d="M5.10752 5.65576L10.453 12.8047L5.07422 18.6172H6.28512L10.9947 13.5285L14.7996 18.6172H18.9195L13.2735 11.0662L18.2804 5.65576H17.0695L12.7327 10.3424L9.2283 5.65576H5.10832H5.10752ZM6.88772 6.54777H8.78L17.1377 17.7252H15.2454L6.88772 6.54777Z" fill="#454545"/>
</svg>
