<svg width="24" height="24" viewBox="0 0 24 24" fill="none" xmlns="http://www.w3.org/2000/svg">
<path d="M3 21.5L5.84587 18.6541M8.99055 19.7783C8.85827 19.9116 8.70089 20.0175 8.52749 20.0897C8.35409 20.162 8.16811 20.1992 7.98026 20.1992C7.79242 20.1992 7.60643 20.162 7.43304 20.0897C7.25964 20.0175 7.10226 19.9116 6.96998 19.7783L4.72175 17.53C4.58838 17.3977 4.48252 17.2404 4.41028 17.067C4.33804 16.8936 4.30085 16.7076 4.30085 16.5197C4.30085 16.3319 4.33804 16.1459 4.41028 15.9725C4.48252 15.7991 4.58838 15.6417 4.72175 15.5095L16.3471 3.8841C16.9132 3.31802 17.681 3 18.4815 3C18.8779 3 19.2704 3.07808 19.6366 3.22977C20.0029 3.38146 20.3356 3.6038 20.6159 3.8841C20.8962 4.16439 21.1185 4.49715 21.2702 4.86337C21.4219 5.22959 21.5 5.6221 21.5 6.0185C21.5 6.41489 21.4219 6.8074 21.2702 7.17362C21.1185 7.53984 20.8962 7.8726 20.6159 8.15289L8.99055 19.7783Z" stroke="#454545" stroke-width="1.5" stroke-linecap="round" stroke-linejoin="round"/>
<path d="M18.6521 10.1165L12.5477 4.01215C12.4154 3.87878 12.2581 3.77292 12.0847 3.70068C11.9113 3.62844 11.7253 3.59125 11.5374 3.59125C11.3496 3.59125 11.1636 3.62844 10.9902 3.70068C10.8168 3.77292 10.6594 3.87878 10.5272 4.01215L5.8457 8.6936" stroke="#454545" stroke-width="1.5" stroke-linecap="round" stroke-linejoin="round"/>
</svg>
