<svg width="70" height="70" viewBox="0 0 70 70" fill="none" xmlns="http://www.w3.org/2000/svg">
<g clip-path="url(#clip0_117_509)">
<path fill-rule="evenodd" clip-rule="evenodd" d="M41.638 26.8333C41.4465 26.2198 41.1021 25.6651 40.6373 25.2212C40.1726 24.7774 39.6026 24.4589 38.9809 24.2958C37.2243 23.9834 35.4263 23.9834 33.6697 24.2958C32.9988 24.3542 32.328 24.3542 31.6572 24.2958C31.4575 24.2895 31.2613 24.2422 31.0807 24.1569C30.9001 24.0716 30.7389 23.9501 30.6072 23.8C29.8751 22.6625 30.8405 21.9012 32.0072 21.3762C33.5605 20.6677 35.2599 20.3378 36.9655 20.4137C37.1782 20.4778 37.4076 20.4555 37.6041 20.3518C37.8005 20.2482 37.9483 20.0713 38.0155 19.8596C38.0364 19.7539 38.0353 19.645 38.0124 19.5397C37.9895 19.4345 37.9452 19.335 37.8824 19.2475C37.8195 19.16 37.7393 19.0864 37.6468 19.0311C37.5544 18.9759 37.4515 18.9402 37.3447 18.9262C36.3879 18.7145 35.405 18.6456 34.428 18.7221C34.4123 18.6451 34.4123 18.5657 34.428 18.4887C34.4538 18.2659 34.4538 18.0408 34.428 17.8179C34.4761 17.6057 34.4761 17.3855 34.428 17.1733C34.2822 16.6192 34.0197 16.1817 33.8447 15.6567C33.8447 15.4091 33.7463 15.1717 33.5713 14.9967C33.3963 14.8217 33.1589 14.7233 32.9113 14.7233C32.6612 14.7309 32.4238 14.8357 32.2495 15.0153C32.0753 15.195 31.9779 15.4355 31.978 15.6858C31.7898 16.2303 31.6339 16.7854 31.5113 17.3483C31.4938 17.5817 31.4938 17.815 31.5113 18.0483C31.4783 18.2817 31.4783 18.515 31.5113 18.7483L31.6863 19.1275C30.6221 19.3741 29.6253 19.8521 28.7668 20.5275C28.1098 21.0749 27.6779 21.8455 27.5542 22.6917C27.4304 23.5378 27.6233 24.3998 28.0959 25.1125C28.393 25.6537 28.8105 26.1193 29.3162 26.4733C29.822 26.8274 30.4024 27.0603 31.0126 27.1542C32.7195 27.3432 34.442 27.3432 36.1488 27.1542C36.7677 27.0632 37.3966 27.0632 38.0155 27.1542C38.1827 27.19 38.3373 27.2698 38.4635 27.3852C38.5896 27.5007 38.6827 27.6477 38.7332 27.811C38.7837 27.9744 38.7898 28.1483 38.7508 28.3148C38.7118 28.4813 38.6291 28.6344 38.5113 28.7583C38.007 29.2899 37.4023 29.7162 36.7322 30.0125C35.2573 30.6711 33.6503 30.9805 32.0363 30.9167C31.5662 30.8725 31.1098 30.7336 30.6947 30.5083C30.2116 30.2624 29.7601 29.9588 29.3501 29.6042C29.2544 29.5275 29.1445 29.4705 29.0267 29.4363C28.9089 29.4021 28.7855 29.3915 28.6636 29.4051C28.5417 29.4186 28.4237 29.456 28.3163 29.5152C28.2089 29.5744 28.1142 29.6542 28.0376 29.75C27.8735 29.9233 27.782 30.153 27.782 30.3917C27.782 30.6304 27.8735 30.86 28.0376 31.0333C28.6287 31.5778 29.2704 32.0551 29.9626 32.4654C30.4798 32.7299 31.0243 32.9146 31.5959 33.0196C32.1209 33.0662 32.6459 33.0662 33.1709 33.0196C33.1581 33.243 33.1581 33.467 33.1709 33.6904C33.1581 33.9138 33.1581 34.1378 33.1709 34.3612C33.3459 34.9154 33.5793 35.3529 33.7834 35.8779C33.783 35.9996 33.8071 36.1202 33.8543 36.2324C33.9016 36.3446 33.971 36.4461 34.0584 36.5308C34.1459 36.6155 34.2495 36.6817 34.3631 36.7253C34.4767 36.769 34.598 36.7893 34.7197 36.785C34.8421 36.7894 34.9641 36.768 35.0777 36.7222C35.1913 36.6765 35.2941 36.6073 35.3793 36.5194C35.4645 36.4314 35.5303 36.3265 35.5725 36.2115C35.6146 36.0965 35.6321 35.9739 35.6238 35.8517C35.8338 35.3111 35.9991 34.7569 36.1197 34.1892C36.1488 33.9422 36.1488 33.6992 36.1197 33.46C36.1455 33.2371 36.1455 33.012 36.1197 32.7892C37.5138 32.5004 38.8322 31.9346 40.0018 31.1237C40.7021 30.6821 41.2401 30.025 41.5346 29.2512C41.8292 28.4774 41.8645 27.6289 41.6351 26.8333" fill="#3A5A33"/>
<path fill-rule="evenodd" clip-rule="evenodd" d="M13.154 25.6375C11.7075 23.2963 10.9148 20.6102 10.8584 17.8588C10.802 15.1073 11.4839 12.391 12.8332 9.9925C13.416 8.93952 14.2573 8.05228 15.2779 7.41443C16.2985 6.77657 17.4647 6.40911 18.6665 6.34666C21.3376 6.12235 24.0139 6.71212 26.3432 8.03833C28.0799 9.16915 29.5611 10.6504 30.692 12.3871C31.8295 13.6996 32.9086 13.4079 33.6086 12.8246C33.9197 12.4649 34.1832 12.076 34.399 11.6579C35.099 10.5204 35.624 8.74125 36.2949 7.83416C37.4674 6.13375 39.0657 4.77166 40.9353 3.89666C42.7539 3.03726 44.8049 2.80048 46.7715 3.22291C48.0459 3.56875 49.2291 4.18952 50.2379 5.0416C51.2467 5.89368 52.0566 6.95638 52.6107 8.155C53.8415 10.6225 54.5007 13.335 54.5357 16.0942C54.3937 21.4821 52.6916 26.7131 49.6357 31.1529C46.7047 35.7168 42.4178 39.248 37.377 41.2504C37.2632 41.2896 37.1585 41.3511 37.0688 41.4312C36.9791 41.5114 36.9064 41.6087 36.8548 41.7173C36.8032 41.826 36.7738 41.9438 36.7683 42.064C36.7628 42.1841 36.7813 42.3042 36.8228 42.4171C36.859 42.5334 36.9183 42.6412 36.9972 42.7341C37.076 42.8269 37.1729 42.9029 37.2818 42.9573C37.3908 43.0118 37.5096 43.0437 37.6312 43.0511C37.7528 43.0585 37.8747 43.0413 37.9895 43.0004C43.4802 40.9658 48.1949 37.2609 51.4703 32.4071C54.8211 27.6145 56.7354 21.9656 56.9886 16.1233C57.079 12.2804 56.0668 8.49205 54.072 5.20625C52.6264 2.84504 50.3433 1.11605 47.6786 0.36458C45.0458 -0.303412 42.2634 -0.0459694 39.7978 1.09375C37.3672 2.14564 35.2689 3.83957 33.7282 5.99375C33.1331 7.04404 32.6164 8.13687 32.1824 9.26333C31.003 7.66171 29.5143 6.31289 27.8045 5.29666C24.3909 3.37549 20.3813 2.80315 16.5665 3.6925C15.217 4.0271 13.9565 4.65187 12.873 5.5233C11.7895 6.39473 10.909 7.49188 10.2928 8.73833C8.81701 11.5574 8.11507 14.7173 8.25854 17.8961C8.402 21.0748 9.38573 24.1587 11.1095 26.8333C15.9161 34.0773 22.9093 39.5981 31.0711 42.5921C32.0628 43.0587 32.5878 41.7754 32.0045 41.1629C24.2281 38.127 17.6241 32.6878 13.154 25.6375Z" fill="#3A5A33"/>
<path fill-rule="evenodd" clip-rule="evenodd" d="M64.2831 47.0575C64.2339 46.2309 63.8807 45.4518 63.2914 44.87C63.0074 44.6798 62.6882 44.5484 62.3526 44.4832C62.017 44.4181 61.6718 44.4207 61.3373 44.4908C59.8206 44.7242 55.9968 45.6283 55.6731 45.6575C50.6684 45.8892 45.9274 47.9687 42.3673 51.4937C39.5901 54.7855 37.9251 58.8711 37.6102 63.1662C37.3768 61.7079 37.1727 60.2496 36.9685 58.5579C36.7643 56.8662 36.4727 54.9967 36.2102 53.2729C35.5619 49.7976 35.0946 46.2909 34.8102 42.7671C34.8222 42.6611 34.8126 42.5537 34.782 42.4515C34.7513 42.3493 34.7002 42.2545 34.6317 42.1726C34.5632 42.0908 34.4789 42.0237 34.3837 41.9755C34.2885 41.9273 34.1846 41.8989 34.0781 41.8921C31.8031 41.6587 33.0281 45.6837 33.0281 52.2812C33.0981 53.654 33.2536 55.0161 33.4948 56.3675C33.6989 57.7092 33.9614 59.08 34.2531 60.3954C34.2421 60.541 34.2421 60.6873 34.2531 60.8329C32.4662 58.2975 30.2194 56.12 27.6293 54.4133C25.146 52.9149 22.2636 52.2126 19.3693 52.4008C18.1422 52.4674 16.9278 52.6829 15.7527 53.0425C14.0873 53.5092 12.4802 54.2092 10.9052 54.7925L8.28017 55.6675H6.88017C6.52403 55.7692 6.2102 55.983 5.9853 56.2773C5.7604 56.5715 5.63644 56.9305 5.63184 57.3008C5.63184 57.6129 5.71934 57.9133 5.88559 58.1758C6.46017 58.9925 7.20684 59.6721 8.07309 60.1592C9.58975 61.0954 11.6927 61.8829 12.6843 62.4662C16.8868 65.1212 21.5032 67.0553 26.3431 68.1887C29.7093 68.9084 33.2176 68.5302 36.3531 67.1096C36.672 67.936 37.0511 68.7332 37.4906 69.5012C37.6066 69.7221 37.8056 69.8878 38.0438 69.9619C38.282 70.036 38.5399 70.0125 38.7608 69.8964C38.9816 69.7804 39.1474 69.5814 39.2215 69.3432C39.2956 69.105 39.272 68.8471 39.156 68.6262C39.0433 68.4235 38.9552 68.2081 38.8935 67.9846C39.0265 68.0614 39.1774 68.1018 39.331 68.1018C39.4846 68.1018 39.6355 68.0614 39.7685 67.9846C41.0749 67.0418 42.5232 66.3132 44.0589 65.8262C48.0725 64.9881 51.9854 63.7248 55.7314 62.0579C57.7771 60.8206 59.5703 59.2075 61.0164 57.3037C62.4875 55.3717 63.5404 53.1547 64.1081 50.7937C64.3793 49.5687 64.4377 48.3 64.2831 47.0575ZM35.6823 65.4179C32.8908 66.5064 29.8279 66.69 26.9264 65.9429C22.4592 64.6447 18.2387 62.6132 14.4373 59.9317C13.6206 59.4358 12.1623 58.7942 10.8206 58.065L12.1914 57.6275C13.7081 57.015 15.1081 56.3442 16.8289 55.8162C17.7798 55.4818 18.752 55.2485 19.7456 55.1162C22.1255 54.8242 24.538 55.2616 26.6639 56.3704C30.3003 58.6943 33.3875 61.7816 35.7114 65.4179H35.6823ZM61.3664 48.4633C61.3099 49.0123 61.2223 49.5576 61.1039 50.0967C60.5875 52.0369 59.6837 53.8525 58.4468 55.4342C57.298 57.104 55.8432 58.541 54.1593 59.6692C50.6678 61.3886 47.0098 62.7471 43.2423 63.7233C41.5276 64.3552 39.9224 65.2518 38.4852 66.3804V66.6721C38.4852 66.7596 38.3393 66.0596 38.2518 65.7387C38.4513 65.7473 38.6467 65.6798 38.7983 65.5499C38.9499 65.4199 39.0465 65.2372 39.0685 65.0387C39.3832 60.5991 41.182 56.3944 44.1756 53.1008C47.4419 50.2056 51.6613 48.6167 56.026 48.6383C56.3177 48.6383 59.4677 47.9092 61.3052 47.6175C61.3441 47.8955 61.3635 48.1775 61.3635 48.4633" fill="#3A5A33"/>
</g>
<defs>
<clipPath id="clip0_117_509">
<rect width="70" height="70" fill="white"/>
</clipPath>
</defs>
</svg>
