<svg width="42" height="42" viewBox="0 0 42 42" fill="none" xmlns="http://www.w3.org/2000/svg">
<path d="M21.04 42H20.9476C9.39723 42 0 32.6 0 21.0462V20.9538C0 9.39998 9.39723 0 20.9476 0H21.04C32.5904 0 41.9876 9.39998 41.9876 20.9538V21.0462C41.9876 32.6 32.5904 42 21.04 42ZM20.9476 1.42166C10.1803 1.42166 1.42124 10.1833 1.42124 20.9538V21.0462C1.42124 31.8167 10.1803 40.5783 20.9476 40.5783H21.04C31.8073 40.5783 40.5664 31.8167 40.5664 21.0462V20.9538C40.5664 10.1833 31.8073 1.42166 21.04 1.42166H20.9476Z" fill="#454545" fill-opacity="0.5"/>
<path d="M27.2707 8.96655H14.7184C11.2505 8.96655 8.42938 11.7885 8.42938 15.2574V26.7443C8.42938 30.2132 11.2505 33.0352 14.7184 33.0352H27.2707C30.7386 33.0352 33.5597 30.2132 33.5597 26.7443V15.2574C33.5597 11.7885 30.7386 8.96655 27.2707 8.96655ZM10.6479 15.2574C10.6479 13.0126 12.4742 11.1857 14.7184 11.1857H27.2707C29.5149 11.1857 31.3412 13.0126 31.3412 15.2574V26.7443C31.3412 28.9891 29.5149 30.816 27.2707 30.816H14.7184C12.4742 30.816 10.6479 28.9891 10.6479 26.7443V15.2574Z" fill="#454545" fill-opacity="0.5"/>
<path d="M20.9946 26.851C24.2194 26.851 26.8444 24.2266 26.8444 20.9995C26.8444 17.7723 24.2208 15.1479 20.9946 15.1479C17.7684 15.1479 15.1448 17.7723 15.1448 20.9995C15.1448 24.2266 17.7684 26.851 20.9946 26.851ZM20.9946 17.3686C22.9971 17.3686 24.6259 18.9978 24.6259 21.0009C24.6259 23.004 22.9971 24.6332 20.9946 24.6332C18.9921 24.6332 17.3633 23.004 17.3633 21.0009C17.3633 18.9978 18.9921 17.3686 20.9946 17.3686Z" fill="#454545" fill-opacity="0.5"/>
<path d="M27.3859 16.0934C28.2543 16.0934 28.9621 15.3869 28.9621 14.5168C28.9621 13.6468 28.2557 12.9402 27.3859 12.9402C26.5161 12.9402 25.8098 13.6468 25.8098 14.5168C25.8098 15.3869 26.5161 16.0934 27.3859 16.0934Z" fill="#454545" fill-opacity="0.5"/>
</svg>
