<svg width="42" height="42" viewBox="0 0 42 42" fill="none" xmlns="http://www.w3.org/2000/svg">
<path d="M21.04 42H20.9476C9.39722 42 0 32.6 0 21.0462V20.9538C0 9.40001 9.39722 0 20.9476 0H21.04C32.5904 0 41.9876 9.40001 41.9876 20.9538V21.0462C41.9876 32.6 32.5904 42 21.04 42ZM20.9476 1.42166C10.1803 1.42166 1.42124 10.1833 1.42124 20.9538V21.0462C1.42124 31.8167 10.1803 40.5783 20.9476 40.5783H21.04C31.8073 40.5783 40.5664 31.8167 40.5664 21.0462V20.9538C40.5664 10.1833 31.8073 1.42166 21.04 1.42166H20.9476Z" fill="#454545" fill-opacity="0.5"/>
<path d="M27.3418 17.2859C27.3389 17.5575 27.3105 17.829 27.2849 18.1005C27.2764 18.1901 27.2736 18.2811 27.2721 18.3706C27.2693 18.5256 27.393 18.6663 27.5479 18.6564C27.6218 18.6521 27.6971 18.6322 27.7681 18.6081C28.0055 18.5242 28.24 18.4346 28.4759 18.345C28.6891 18.2626 28.9066 18.1887 29.1269 18.129C29.3671 18.0636 29.6072 18.0152 29.8517 18.055C30.3491 18.1361 30.6732 18.672 30.4912 19.1426C30.4401 19.2748 30.3619 19.3886 30.2681 19.4938C30.1388 19.6373 29.9924 19.7596 29.8332 19.8676C29.6456 19.9942 29.4566 20.1179 29.2676 20.243C28.952 20.4505 28.6365 20.6567 28.3224 20.8671C28.1917 20.9538 28.0652 21.0462 27.9416 21.1414C27.8733 21.194 27.8094 21.2552 27.7511 21.3191C27.6402 21.4428 27.5791 21.6006 27.5891 21.7656C27.599 21.9404 27.6289 22.111 27.6772 22.2788C27.8264 22.8019 28.0553 23.2881 28.3324 23.753C29.0757 24.9941 30.1288 25.9637 31.3824 26.7556C31.7263 26.9731 32.0944 27.1494 32.4568 27.3356C32.508 27.3626 32.5577 27.3896 32.6075 27.4195C32.6572 27.4493 32.7013 27.4891 32.734 27.5375C32.7851 27.61 32.7922 27.6868 32.7482 27.7664C32.7112 27.8346 32.6572 27.8872 32.5989 27.9355C32.5336 27.9896 32.4625 28.035 32.3886 28.0763C31.9651 28.3165 31.5103 28.4957 31.0398 28.6208C30.8124 28.6819 30.585 28.7459 30.3591 28.8127C30.2198 28.8539 30.089 28.9151 29.9597 28.9819C29.7423 29.0942 29.6186 29.2747 29.5731 29.5093C29.5475 29.6401 29.5319 29.7737 29.5077 29.9045C29.448 30.2358 29.3287 30.3566 29.0046 30.4135C28.8909 30.4334 28.7744 30.4447 28.6593 30.4519C28.3693 30.4675 28.0794 30.476 27.7895 30.4917C27.7809 30.4917 27.7724 30.4917 27.7653 30.4931C26.607 30.5613 25.4871 30.9324 24.4936 31.5323C24.441 31.5636 24.3885 31.5963 24.3345 31.6276C23.9322 31.8707 23.5229 32.1024 23.0838 32.273C22.5934 32.4635 22.0875 32.5772 21.563 32.6242C21.121 32.664 20.6804 32.6583 20.2413 32.6085C19.5832 32.5346 18.9593 32.3427 18.3695 32.0413C18.0952 31.9005 17.8309 31.7442 17.5693 31.5835C17.5551 31.575 17.5409 31.5664 17.5253 31.5565C16.4821 30.921 15.2954 30.5357 14.0745 30.486C14.066 30.486 14.0575 30.486 14.049 30.486C13.7931 30.476 13.5387 30.4661 13.2829 30.4504C13.1337 30.4419 12.9844 30.422 12.8381 30.3822C12.6519 30.331 12.5169 30.1675 12.4813 29.9785C12.4614 29.8747 12.4458 29.7709 12.4273 29.6671C12.4231 29.6444 12.423 29.6202 12.4188 29.5974C12.3761 29.2932 12.2255 29.07 11.9398 28.9407C11.765 28.861 11.586 28.797 11.4012 28.7459C11.0828 28.6577 10.7616 28.5795 10.4504 28.4672C10.1761 28.3691 9.91173 28.2526 9.65733 28.1132C9.58058 28.072 9.50667 28.0251 9.43561 27.9768C9.38729 27.9441 9.34182 27.9071 9.30202 27.8659C9.17411 27.7322 9.1869 27.5574 9.33186 27.4436C9.41572 27.3768 9.51377 27.3328 9.609 27.2859C10.2727 26.9603 10.9023 26.5793 11.4879 26.1272C12.3719 25.4462 13.1209 24.6401 13.688 23.6691C13.8898 23.3223 14.0575 22.9541 14.1953 22.5759C14.2863 22.3257 14.3602 22.0755 14.3787 21.8125C14.3915 21.6191 14.3261 21.4272 14.1939 21.2864C14.0987 21.1855 13.9878 21.1045 13.8756 21.0235C13.7078 20.904 13.5387 20.786 13.3682 20.6737C13.0015 20.4321 12.6334 20.1946 12.2667 19.9544C12.1061 19.8492 11.9512 19.7354 11.8119 19.6032C11.711 19.5066 11.62 19.4028 11.5476 19.2819C11.3969 19.0289 11.3855 18.7687 11.4978 18.5014C11.5646 18.3422 11.6897 18.2071 11.846 18.1346C12.0692 18.0323 12.3023 18.0195 12.5368 18.0579C12.7897 18.0991 13.0328 18.1773 13.273 18.264C13.5188 18.3521 13.7604 18.4488 14.0049 18.5398C14.1186 18.5825 14.2337 18.6251 14.3545 18.6436C14.3829 18.6479 14.4114 18.6564 14.4398 18.655C14.5805 18.6507 14.697 18.6052 14.6956 18.4161C14.6956 18.3251 14.6928 18.2327 14.6885 18.1418C14.6672 17.6868 14.6402 17.2319 14.6288 16.777C14.6032 15.6937 14.6075 14.6061 14.8903 13.5541C15.0637 12.9101 15.3636 12.3115 15.7687 11.7799C16.6086 10.6752 17.7172 9.97434 19.0432 9.60044C19.768 9.39572 20.5085 9.3289 21.2589 9.35165C21.9681 9.37298 22.6744 9.49241 23.3453 9.72699C24.1412 10.0056 24.8646 10.4094 25.48 10.9823C26.1792 11.6334 26.7179 12.394 27.0106 13.3152C27.1428 13.7318 27.2267 14.1583 27.2778 14.5905C27.3844 15.4847 27.3546 16.3846 27.346 17.2831L27.3418 17.2859Z" fill="#454545" fill-opacity="0.5"/>
</svg>
