<svg width="42" height="42" viewBox="0 0 42 42" fill="none" xmlns="http://www.w3.org/2000/svg">
<path d="M21.04 42H20.9476C9.39721 42 0 32.6 0 21.0462V20.9538C0 9.39998 9.39721 0 20.9476 0H21.04C32.5904 0 41.9876 9.39998 41.9876 20.9538V21.0462C41.9876 32.6 32.5904 42 21.04 42ZM20.9476 1.42166C10.1803 1.42166 1.42124 10.1833 1.42124 20.9538V21.0462C1.42124 31.8167 10.1803 40.5783 20.9476 40.5783H21.04C31.8073 40.5783 40.5664 31.8167 40.5664 21.0462V20.9538C40.5664 10.1833 31.8073 1.42166 21.04 1.42166H20.9476Z" fill="#3A5A33"/>
<path d="M8.39378 20.3069C8.45063 20.2785 8.5075 20.2515 8.56293 20.2259C9.52653 19.7795 10.5029 19.3615 11.4779 18.9435C11.5305 18.9435 11.6186 18.8824 11.6683 18.8625C11.7436 18.8298 11.819 18.7985 11.8943 18.7658C12.0393 18.7033 12.1842 18.6421 12.3278 18.5796C12.6177 18.4559 12.9062 18.3322 13.1961 18.2086C13.7746 17.9612 14.353 17.7138 14.9315 17.465C16.0884 16.9703 17.2467 16.4741 18.4036 15.9794C19.5605 15.4846 20.7188 14.9885 21.8757 14.4937C23.0326 13.999 24.1909 13.5029 25.3477 13.0081C26.5046 12.5134 27.663 12.0172 28.8198 11.5225C29.0771 11.4116 29.3556 11.2467 29.6314 11.1984C29.863 11.1571 30.089 11.0775 30.3221 11.0335C30.7641 10.9496 31.2516 10.9155 31.6751 11.0988C31.8215 11.1628 31.9565 11.2524 32.0688 11.3647C32.606 11.8964 32.5307 12.7693 32.417 13.5171C31.6253 18.7289 30.8337 23.9421 30.0407 29.1539C29.9327 29.869 29.7848 30.6537 29.2206 31.1058C28.7431 31.4882 28.0637 31.5309 27.4739 31.3688C26.8841 31.2053 26.3639 30.8627 25.8537 30.5258C23.7375 29.124 21.6198 27.7223 19.5036 26.3205C19.0005 25.9878 18.4405 25.5528 18.4462 24.9486C18.4491 24.5847 18.6665 24.2605 18.8882 23.9719C20.7273 21.5722 23.3808 19.9231 25.3549 17.6342C25.6334 17.3115 25.8523 16.7286 25.47 16.5424C25.2426 16.4315 24.9811 16.5822 24.7736 16.7257C22.1642 18.5384 19.5562 20.3524 16.9468 22.165C16.0955 22.7564 15.203 23.3649 14.1768 23.5099C13.2587 23.6407 12.3349 23.3848 11.4466 23.1232C10.7019 22.9043 9.95857 22.6796 9.2181 22.4479C8.82442 22.3256 8.41794 22.1934 8.1138 21.9162C7.80965 21.639 7.63487 21.1727 7.81821 20.8031C7.93333 20.5713 8.15646 20.4249 8.39097 20.3055L8.39378 20.3069Z" fill="#3A5A33"/>
</svg>
