<svg width="42" height="42" viewBox="0 0 42 42" fill="none" xmlns="http://www.w3.org/2000/svg">
<path d="M21.04 42H20.9476C9.39723 42 0 32.6 0 21.0462V20.9538C0 9.39998 9.39723 0 20.9476 0H21.04C32.5904 0 41.9877 9.39998 41.9877 20.9538V21.0462C41.9877 32.6 32.5904 42 21.04 42ZM20.9476 1.42166C10.1803 1.42166 1.42124 10.1833 1.42124 20.9538V21.0462C1.42124 31.8167 10.1803 40.5783 20.9476 40.5783H21.04C31.8073 40.5783 40.5664 31.8167 40.5664 21.0462V20.9538C40.5664 10.1833 31.8073 1.42166 21.04 1.42166H20.9476Z" fill="#3A5A33"/>
<path d="M30.7997 15.391V19.2223C30.1303 19.1569 29.2605 19.0048 28.2983 18.6522C27.0419 18.1916 26.1067 17.5618 25.4942 17.0742V24.818L25.4785 24.7938C25.4885 24.9473 25.4942 25.1037 25.4942 25.2615C25.4942 29.1071 22.366 32.2376 18.5202 32.2376C14.6743 32.2376 11.5461 29.1071 11.5461 25.2615C11.5461 21.4159 14.6743 18.284 18.5202 18.284C18.8968 18.284 19.2663 18.3139 19.6273 18.3722V22.1481C19.2805 22.0244 18.9082 21.9576 18.5202 21.9576C16.6996 21.9576 15.2172 23.4389 15.2172 25.2615C15.2172 27.0841 16.6996 28.5654 18.5202 28.5654C20.3408 28.5654 21.8231 27.0826 21.8231 25.2615C21.8231 25.1933 21.8217 25.125 21.8174 25.0568V10.0085H25.6448C25.659 10.3327 25.6718 10.6597 25.686 10.9838C25.7116 11.6221 25.939 12.2349 26.3355 12.7367C26.8003 13.3267 27.4868 14.0119 28.4503 14.5593C29.3528 15.0696 30.1999 15.29 30.7997 15.3938V15.391Z" fill="#3A5A33"/>
</svg>
