<svg width="42" height="42" viewBox="0 0 42 42" fill="none" xmlns="http://www.w3.org/2000/svg">
<path d="M21.04 42H20.9476C9.39723 42 0 32.6 0 21.0462V20.9538C0 9.39998 9.39723 0 20.9476 0H21.04C32.5904 0 41.9876 9.39998 41.9876 20.9538V21.0462C41.9876 32.6 32.5904 42 21.04 42ZM20.9476 1.42166C10.1803 1.42166 1.42124 10.1833 1.42124 20.9538V21.0462C1.42124 31.8167 10.1803 40.5783 20.9476 40.5783H21.04C31.8073 40.5783 40.5664 31.8167 40.5664 21.0462V20.9538C40.5664 10.1833 31.8073 1.42166 21.04 1.42166H20.9476Z" fill="#454545" fill-opacity="0.5"/>
<path d="M8.93816 9.89771L18.2927 22.4083L8.87988 32.5802H10.999L19.2407 23.675L25.8992 32.5802H33.1092L23.2287 19.366L31.9906 9.89771H29.8716L22.2822 18.0993L16.1495 9.89771H8.93956H8.93816ZM12.0535 11.4587H15.365L29.991 31.0193H26.6795L12.0535 11.4587Z" fill="#454545" fill-opacity="0.5"/>
</svg>
