<svg width="32" height="32" viewBox="0 0 32 32" fill="none" xmlns="http://www.w3.org/2000/svg">
<path d="M6.66669 14.6667H22.48L17.64 8.85338C17.4137 8.58109 17.3048 8.23005 17.3373 7.87748C17.3698 7.52491 17.5411 7.19969 17.8134 6.97338C18.0856 6.74706 18.4367 6.63817 18.7893 6.67068C19.1418 6.70319 19.467 6.87442 19.6934 7.14671L26.36 15.1467C26.4049 15.2103 26.445 15.2772 26.48 15.3467C26.48 15.4134 26.48 15.4534 26.5734 15.52C26.6338 15.6729 26.6654 15.8357 26.6667 16C26.6654 16.1644 26.6338 16.3272 26.5734 16.48C26.5734 16.5467 26.5734 16.5867 26.48 16.6534C26.445 16.7229 26.4049 16.7897 26.36 16.8534L19.6934 24.8534C19.568 25.0039 19.411 25.1249 19.2336 25.2079C19.0561 25.2908 18.8626 25.3337 18.6667 25.3334C18.3552 25.334 18.0532 25.2255 17.8134 25.0267C17.6783 24.9148 17.5667 24.7773 17.4849 24.6222C17.4031 24.467 17.3527 24.2973 17.3366 24.1227C17.3205 23.948 17.339 23.7719 17.3911 23.6045C17.4432 23.437 17.5278 23.2814 17.64 23.1467L22.48 17.3334H6.66669C6.31307 17.3334 5.97393 17.1929 5.72388 16.9429C5.47383 16.6928 5.33335 16.3537 5.33335 16C5.33335 15.6464 5.47383 15.3073 5.72388 15.0572C5.97393 14.8072 6.31307 14.6667 6.66669 14.6667Z" fill="#3A5A33"/>
</svg>
